<svg version="1.1" xmlns="http://www.w3.org/2000/svg" xmlns:xlink="http://www.w3.org/1999/xlink" width="202.69056" height="202.69056" viewBox="0,0,202.69056,202.69056"><g transform="translate(-138.65472,-78.65472)"><g data-paper-data="{&quot;isPaintingLayer&quot;:true}" fill-rule="nonzero" stroke="none" stroke-linecap="butt" stroke-linejoin="miter" stroke-miterlimit="10" stroke-dasharray="" stroke-dashoffset="0" style="mix-blend-mode: normal"><path d="M138.65472,180c0,-58.60959 42.72226,-101.34528 101.34528,-101.34528c58.62302,0 101.34528,45.4113 101.34528,101.34528c0,55.93398 -42.91855,101.34528 -101.34528,101.34528c-58.42673,0 -101.34528,-42.73568 -101.34528,-101.34528z" fill="#191919" stroke-width="0"/><g fill="#808080" stroke-width="0"><path d="M186.163,196.15831c-20.77823,-20.77823 -21.46402,-53.78063 -21.46402,-53.78063c0,0 33.0024,0.68578 53.78063,21.46402c20.77823,20.77823 21.46402,53.78063 21.46402,53.78063c0,0 -33.0024,-0.68578 -53.78063,-21.46402z"/><path d="M261.5204,163.84169c20.77823,-20.77823 53.78063,-21.46402 53.78063,-21.46402c0,0 -0.68579,33.0024 -21.46402,53.78063c-20.77823,20.77823 -53.78063,21.46402 -53.78063,21.46402c0,0 0.68579,-33.0024 21.46402,-53.78063z"/><path d="M217.14871,180c0,-29.38486 22.85129,-53.206 22.85129,-53.206c0,0 22.85129,23.82114 22.85129,53.206c0,29.38486 -22.85129,53.206 -22.85129,53.206c0,0 -22.85129,-23.82114 -22.85129,-53.206z"/></g><text transform="translate(195.43002,248.16873) scale(0.5,0.5)" font-size="40" xml:space="preserve" fill="#808080" fill-rule="nonzero" stroke="none" stroke-width="1" stroke-linecap="butt" stroke-linejoin="miter" stroke-miterlimit="10" stroke-dasharray="" stroke-dashoffset="0" font-family="Sans Serif" font-weight="normal" text-anchor="start" style="mix-blend-mode: normal"><tspan x="0" dy="0">Lavander</tspan></text><text transform="translate(213.23862,265.64011) scale(0.349,0.349)" font-size="40" xml:space="preserve" fill="#808080" fill-rule="nonzero" stroke="none" stroke-width="1" stroke-linecap="butt" stroke-linejoin="miter" stroke-miterlimit="10" stroke-dasharray="" stroke-dashoffset="0" font-family="Sans Serif" font-weight="normal" text-anchor="start" style="mix-blend-mode: normal"><tspan x="0" dy="0">is sweet</tspan></text><path d="M263.43254,141.8008c0,-3.41217 2.76612,-6.17829 6.17829,-6.17829c3.41217,0 6.17828,2.76612 6.17828,6.17829c0,3.41217 -2.76611,6.17829 -6.17828,6.17829c-3.41217,0 -6.17829,-2.76611 -6.17829,-6.17829z" fill="#808080" stroke-width="0"/><path d="M198.49714,129.44493c0,-4.9964 4.05038,-9.04678 9.04678,-9.04678c4.9964,0 9.04677,4.05038 9.04677,9.04678c0,4.9964 -4.05037,9.04678 -9.04677,9.04678c-4.9964,0 -9.04678,-4.05038 -9.04678,-9.04678z" fill="#808080" stroke-width="0"/><path d="M242.30313,107.17569c0,-5.37233 4.35512,-9.72745 9.72745,-9.72745c5.37233,0 9.72745,4.35512 9.72745,9.72745c0,5.37233 -4.35512,9.72745 -9.72745,9.72745c-5.37233,0 -9.72745,-4.35512 -9.72745,-9.72745z" fill="#808080" stroke-width="0"/><path d="M227.97718,182.53949c0,-1.38071 1.11929,-2.5 2.5,-2.5c1.38071,0 2.5,1.11929 2.5,2.5c0,1.38071 -1.11929,2.5 -2.5,2.5c-1.38071,0 -2.5,-1.11929 -2.5,-2.5z" fill="#191919" stroke-width="0.5"/><path d="M242.61311,174.12383c0,-1.38071 1.11929,-2.5 2.5,-2.5c1.38071,0 2.5,1.11929 2.5,2.5c0,1.38071 -1.11929,2.5 -2.5,2.5c-1.38071,0 -2.5,-1.11929 -2.5,-2.5z" fill="#191919" stroke-width="0.5"/><path d="M252.97992,177.4782c2.5,0 2.5,2.5 2.5,2.5l-0.03804,1.53216c-0.31533,1.76601 -0.79792,5.65184 -2.01553,7.03293c-2.24219,2.54322 -10.14144,4.18517 -13.1657,4.17823c-1.43569,-0.00329 -2.75538,-0.80794 -4.13308,-1.2119c0,0 -2.38396,-0.75283 -1.63113,-3.13679c0.75283,-2.38396 3.13679,-1.63113 3.13679,-1.63113c0.93966,0.32783 1.82388,0.99742 2.81899,0.98349c1.46158,-0.02047 2.82353,-0.76098 4.24946,-1.08246c0.17636,-0.03976 4.24827,-0.54451 4.90463,-1.32548c1.02168,-1.21563 0.63924,-3.1114 0.91165,-4.67582l-0.03804,-0.66323c0,0 0,-2.5 2.5,-2.5z" fill="#191919" stroke-width="0.5"/></g></g></svg>